:SAMPLES-PER-SECOND 30
:FRAME-RANGE 1-1770
:FULLY-SPECIFIED
:DEGREES
166
root  92.5058 39.3093 -43.8635 -172.823 -26.7215 178.685
RightUpLeg  -1.38619 -11.1764 -8.55039
RightLeg  15.5944 -11.4615 -2.74173
RightFoot  -11.9834 0.00477109 15.3691
RightToes  -1.33073e-015 0 -3.6325e-017
Spine  -4.805 1.86268 8.50618
Spine1  6.943 1.57792 -1.09364
HEad  9.45644 50.7887 -13.6322
LeftShoulder1  0.52 1.44272 -21.8068
LeftArm  2.05113 1.12904 -51.8744
LeftForeArm  32.1176 -0.580139 -13.2159
LeftHand  -0.0367535 5.07236 5.32379
RightShoulder  1.41227 1.27525 24.7
RightArm  -20.8178 3.42552 46.4546
RightForeArm  58.1016 -4.74094 6.01901
RightHand  0.210743 -6.52791 -22.2759
LeftUpLeg  -26.932 13.7332 -0.125464
LeftLeg  12.0283 19.3179 2.87337
LeftFoot  0.490042 -0.0762942 0.707865
LeftToes  1.09107e-011 -1.16422e-010 2.98337e-011
167
root  91.9417 39.187 -44.3331 -173.02 -29.0315 179.217
RightUpLeg  0.665907 -11.2024 -8.5307
RightLeg  14.8903 -13.1827 -2.74765
RightFoot  -12.1741 0.039448 16.7635
RightToes  -1.33073e-015 0 -3.6325e-017
Spine  -4.82512 1.92907 8.2468
Spine1  6.81835 1.65605 -1.11148
HEad  8.56782 50.8889 -13.4442
LeftShoulder1  0.444384 1.71107 -21.7614
LeftArm  2.62436 1.20448 -52.098
LeftForeArm  32.3678 -0.496301 -13.3748
LeftHand  -0.0748108 4.15165 5.33943
RightShoulder  1.45992 1.40316 24.8903
RightArm  -20.5237 5.38986 47.4915
RightForeArm  58.1151 -5.95912 5.93943
RightHand  0.265342 -6.83284 -21.9854
LeftUpLeg  -26.5326 10.0809 2.43487
LeftLeg  8.29575 28.4385 1.85543
LeftFoot  0.676663 -0.101084 0.921597
LeftToes  1.09107e-011 -1.16422e-010 2.98337e-011
168
root  91.2522 39.0283 -44.8135 -173.315 -31.1301 179.745
RightUpLeg  2.74309 -11.1911 -8.71487
RightLeg  14.4987 -14.3306 -2.75172
RightFoot  -12.2855 0.0689366 18.4162
RightToes  -1.33073e-015 0 -3.6325e-017
Spine  -4.87132 1.96768 7.92622
Spine1  6.8384 1.72282 -1.14138
HEad  6.82219 50.5861 -14.0231
LeftShoulder1  0.414074 1.83393 -22.0467
LeftArm  2.34806 1.13951 -51.983
LeftForeArm  33.0207 -0.0759398 -13.3441
LeftHand  -0.045683 4.80913 4.84845
RightShoulder  1.5033 1.55324 24.8287
RightArm  -21.2779 7.11579 48.9966
RightForeArm  59.2231 -6.00931 5.41219
RightHand  0.267684 -6.86879 -21.6744
LeftUpLeg  -26.5217 8.70393 3.49575
LeftLeg  6.02576 32.7862 1.17314
LeftFoot  1.48533 -0.164268 1.3816
LeftToes  1.09107e-011 -1.16422e-010 2.98337e-011
169
root  90.4231 38.8638 -45.2813 -173.399 -32.9047 179.969
RightUpLeg  4.56482 -11.5727 -9.40106
RightLeg  14.5286 -14.5883 -2.92118
RightFoot  -12.1831 0.069781 20.6468
RightToes  -1.33073e-015 0 -3.6325e-017
Spine  -4.89092 2.09885 7.67663
Spine1  6.79766 2.01644 -1.67144
HEad  5.84538 49.7301 -13.916
LeftShoulder1  0.405213 1.87828 -22.3165
LeftArm  2.05556 0.908924 -52.0051
LeftForeArm  33.8647 0.784674 -13.3802
LeftHand  -0.0460732 4.81093 4.96238
RightShoulder  1.56384 1.79699 24.5314
RightArm  -21.6226 7.93457 50.3321
RightForeArm  59.4067 -5.95812 5.13811
RightHand  0.190983 -6.4795 -21.3157
LeftUpLeg  -27.0707 8.33935 3.36505
LeftLeg  6.0276 33.9448 1.38774
LeftFoot  2.9996 -0.338239 2.54386
LeftToes  1.09107e-011 -1.16422e-010 2.98337e-011
170
root  89.4635 38.7158 -45.7079 -173.117 -34.4234 179.887
RightUpLeg  5.88032 -12.2804 -10.5471
RightLeg  15.1174 -13.9448 -3.37851
RightFoot  -11.6727 -0.0110057 23.5762
RightToes  -1.33073e-015 0 -3.6325e-017
Spine  -4.67608 2.28208 7.35878
Spine1  6.42536 2.48299 -2.63008
HEad  4.68549 48.7764 -13.9194
LeftShoulder1  0.398396 1.91053 -22.4947
LeftArm  1.41508 1.0853 -52.1691
LeftForeArm  34.7637 1.26886 -13.2339
LeftHand  -0.0308353 5.21199 4.98697
RightShoulder  1.57587 1.87106 24.3166
RightArm  -21.4694 8.1496 51.4268
RightForeArm  58.8858 -5.97858 5.15718
RightHand  0.186549 -6.44777 -21.4475
LeftUpLeg  -28.3641 8.8955 1.87348
LeftLeg  8.9612 32.2496 2.94981
LeftFoot  5.12253 -0.61115 4.00759
LeftToes  1.09107e-011 -1.16422e-010 2.98337e-011
171
root  88.3542 38.5316 -46.1045 -172.716 -36.1995 179.366
RightUpLeg  6.82072 -12.9641 -12.3881
RightLeg  17.2253 -12.4129 -4.17758
RightFoot  -10.9462 -0.172141 27.5723
RightToes  -1.33073e-015 0 -3.6325e-017
Spine  -4.28477 2.28825 6.51433
Spine1  6.07866 2.63292 -3.02104
HEad  2.40055 48.7617 -15.1639
LeftShoulder1  0.325408 2.1775 -22.8065
LeftArm  1.51342 0.542661 -52.4924
LeftForeArm  34.42 2.63716 -13.4434
LeftHand  -0.0475946 4.81829 5.4192
RightShoulder  1.6075 2.00617 24.1328
RightArm  -21.1124 7.86913 51.9748
RightForeArm  58.5347 -4.75771 5.50436
RightHand  0.149315 -6.25155 -21.3382
LeftUpLeg  -30.4069 12.2291 -2.1728
LeftLeg  14.3528 25.5013 5.73775
LeftFoot  3.76807 -0.557024 4.026
LeftToes  1.09107e-011 -1.16422e-010 2.98337e-011
172
root  87.1168 38.3329 -46.4651 -171.888 -38.2239 178.174
RightUpLeg  6.67422 -12.5401 -14.833
RightLeg  21.7506 -11.4868 -5.21171
RightFoot  -9.54925 -0.582837 32.2239
RightToes  -1.33073e-015 0 -3.6325e-017
Spine  -4.57178 2.46813 5.72029
Spine1  6.41502 2.97996 -3.68298
HEad  0.399914 49.2689 -15.9398
LeftShoulder1  0.486137 1.63999 -23.157
LeftArm  0.903486 1.02421 -52.7315
LeftForeArm  34.3655 2.49677 -13.2037
LeftHand  -0.0279392 5.28593 5.41344
RightShoulder  1.6374 2.09629 24.1877
RightArm  -20.9999 6.71956 51.8453
RightForeArm  57.9067 -2.55158 5.92856
RightHand  0.112082 -6.05124 -21.2781
LeftUpLeg  -31.5355 14.4419 -6.39279
LeftLeg  17.7057 19.5886 6.83674
LeftFoot  3.05941 -0.746686 5.75821
LeftToes  1.09107e-011 -1.16422e-010 2.98337e-011
173
root  85.8709 38.2636 -46.7605 -171.445 -39.7702 177.328
RightUpLeg  4.95684 -10.5753 -16.567
RightLeg  28.4435 -11.811 -7.07366
RightFoot  -5.89636 -1.72338 34.3739
RightToes  -1.33073e-015 0 -3.6325e-017
Spine  -4.25693 2.86069 5.95825
Spine1  6.55107 3.71415 -5.24414
HEad  -0.442488 49.9928 -16.0047
LeftShoulder1  0.338641 2.13326 -22.8477
LeftArm  0.567817 1.15589 -53.9901
LeftForeArm  35.6621 2.65753 -13.1249
LeftHand  -0.0205796 5.47412 5.11265
RightShoulder  1.67465 2.28721 23.8041
RightArm  -21.1809 4.91185 51.7065
RightForeArm  57.4308 -0.392907 6.22142
RightHand  0.0564601 -5.75191 -21.0918
LeftUpLeg  -31.0084 14.7508 -8.61413
LeftLeg  19.5152 17.4716 7.03071
LeftFoot  2.10608 -0.844788 7.04774
LeftToes  1.09107e-011 -1.16422e-010 2.98337e-011
174
root  84.6291 38.3925 -47.0287 -171.72 -42.132 177.469
RightUpLeg  1.05822 -9.69292 -16.6337
RightLeg  38.3334 -13.0391 -11.0844
RightFoot  0.959592 -2.63414 24.1693
RightToes  -1.33073e-015 0 -3.6325e-017
Spine  -3.83438 2.85989 6.43066
Spine1  6.27281 3.70863 -5.01041
HEad  -1.03143 51.7692 -16.4036
LeftShoulder1  0.230754 2.51525 -23.1956
LeftArm  0.450117 0.510674 -54.8533
LeftForeArm  36.3411 3.57279 -13.1365
LeftHand  -0.0131858 5.61921 5.65711
RightShoulder  1.61197 2.15695 23.3395
RightArm  -21.5799 4.01428 51.5536
RightForeArm  58.0686 0.503822 6.15684
RightHand  -0.0253668 -5.30105 -20.7745
LeftUpLeg  -29.3094 13.8581 -9.50135
LeftLeg  20.03 16.2352 6.76349
LeftFoot  0.0755401 -0.770589 7.69171
LeftToes  1.09107e-011 -1.16422e-010 2.98337e-011
175
root  83.5366 38.4698 -47.3036 -171.637 -45.421 176.95
RightUpLeg  -3.14111 -8.48673 -15.884
RightLeg  47.6563 -12.3709 -14.4431
RightFoot  5.51844 -1.44021 9.95114
RightToes  -1.33073e-015 0 -3.6325e-017
Spine  -4.27608 2.60925 5.46603
Spine1  7.43393 3.24774 -3.91627
HEad  -2.25701 53.2282 -17.591
LeftShoulder1  0.37575 2.03548 -23.582
LeftArm  0.766311 -0.360377 -55.4974
LeftForeArm  36.1037 4.00091 -13.2772
LeftHand  -0.0268388 5.305 6.32755
RightShoulder  1.58537 2.13491 22.9456
RightArm  -22.4224 3.39922 51.1412
RightForeArm  58.5946 0.907975 5.8143
RightHand  -0.0425266 -5.20401 -20.5534
LeftUpLeg  -27.2928 11.5839 -10.377
LeftLeg  20.2744 15.5354 6.57241
LeftFoot  -1.56899 -0.681403 8.06744
LeftToes  1.09107e-011 -1.16422e-010 2.98337e-011
176
root  82.6609 38.378 -47.5671 -170.779 -48.5002 175.502
RightUpLeg  -6.57219 -5.9226 -15.6258
RightLeg  54.273 -7.12142 -10.8919
RightFoot  -0.120734 -1.0008 10.1545
RightToes  -1.33073e-015 0 -3.6325e-017
Spine  -4.00456 2.3689 3.37077
Spine1  8.03096 2.82428 -3.7889
HEad  -2.57075 54.6414 -17.4542
LeftShoulder1  0.395031 1.94467 -22.992
LeftArm  1.54621 -0.747045 -56.4909
LeftForeArm  36.472 3.69997 -13.4597
LeftHand  -0.0220619 5.39601 6.52497
RightShoulder  1.57727 2.05152 23.2642
RightArm  -22.8506 2.70182 50.2072
RightForeArm  59.365 0.570208 5.58717
RightHand  -0.0323246 -5.26194 -20.6569
LeftUpLeg  -26.0397 8.98393 -11.5981
LeftLeg  21.6175 15.1651 6.84162
LeftFoot  -3.44089 -0.530427 7.96869
LeftToes  1.09107e-011 -1.16422e-010 2.98337e-011
177
root  81.7629 38.3692 -47.8651 -170.284 -51.8786 174.542
RightUpLeg  -9.79531 -2.99444 -14.5206
RightLeg  58.6405 -3.19837 -6.11822
RightFoot  -3.96468 -0.68881 10.2392
RightToes  -1.33073e-015 0 -3.6325e-017
Spine  -3.71311 2.01047 2.06962
Spine1  8.2327 2.32666 -3.79451
HEad  -2.02568 55.3627 -16.4275
LeftShoulder1  0.356439 2.0499 -22.3155
LeftArm  2.09463 -1.03771 -57.268
LeftForeArm  37.878 2.84779 -13.4633
LeftHand  -0.0123522 5.58945 6.41666
RightShoulder  1.49018 1.65378 23.89
RightArm  -23.1142 2.02679 49.1212
RightForeArm  60.6815 -0.196606 5.35902
RightHand  0.00982085 -5.49709 -20.8788
LeftUpLeg  -24.1678 5.80688 -12.1269
LeftLeg  22.2358 15.2161 6.9051
LeftFoot  -4.99283 -0.410233 7.9273
LeftToes  1.09107e-011 -1.16422e-010 2.98337e-011
